<svg width="101" height="76" viewBox="0 0 101 76" fill="none" xmlns="http://www.w3.org/2000/svg">
<rect x="-0.000976562" width="100.324" height="75.9456" rx="37.9728" fill="#00CC46"/>
<path d="M59.632 39.633L44.007 55.258C43.5667 55.6983 42.9695 55.9456 42.3468 55.9456C41.7242 55.9456 41.127 55.6983 40.6867 55.258C40.2464 54.8177 39.999 54.2205 39.999 53.5978C39.999 52.9751 40.2464 52.378 40.6867 51.9377L54.6535 37.9748L40.6906 24.008C40.4726 23.79 40.2996 23.5311 40.1816 23.2463C40.0637 22.9614 40.0029 22.6561 40.0029 22.3478C40.0029 22.0395 40.0637 21.7342 40.1816 21.4493C40.2996 21.1645 40.4726 20.9057 40.6906 20.6877C40.9086 20.4696 41.1674 20.2967 41.4523 20.1787C41.7371 20.0607 42.0424 20 42.3507 20C42.6591 20 42.9644 20.0607 43.2492 20.1787C43.5341 20.2967 43.7929 20.4696 44.0109 20.6877L59.6359 36.3127C59.8541 36.5307 60.0272 36.7896 60.1452 37.0746C60.2631 37.3596 60.3237 37.6652 60.3233 37.9736C60.3229 38.2821 60.2617 38.5875 60.1431 38.8722C60.0244 39.157 59.8507 39.4155 59.632 39.633Z" fill="white"/>
</svg>
