<svg width="50" height="50" viewBox="0 0 50 50" fill="none" xmlns="http://www.w3.org/2000/svg">
<rect width="50" height="50" rx="25" fill="#00CC46"/>
<path d="M36.0334 26.6582L20.4084 42.2832C19.9681 42.7235 19.3709 42.9709 18.7482 42.9709C18.1255 42.9709 17.5284 42.7235 17.088 42.2832C16.6477 41.8429 16.4004 41.2457 16.4004 40.6231C16.4004 40.0004 16.6477 39.4032 17.088 38.9629L31.0548 25L17.092 11.0332C16.8739 10.8152 16.701 10.5564 16.583 10.2715C16.465 9.98667 16.4043 9.68137 16.4043 9.37305C16.4043 9.06473 16.465 8.75943 16.583 8.47458C16.701 8.18973 16.8739 7.93091 17.092 7.7129C17.31 7.49488 17.5688 7.32194 17.8536 7.20396C18.1385 7.08597 18.4438 7.02524 18.7521 7.02524C19.0604 7.02524 19.3657 7.08597 19.6506 7.20396C19.9354 7.32194 20.1943 7.49488 20.4123 7.7129L36.0373 23.3379C36.2555 23.5559 36.4286 23.8148 36.5465 24.0999C36.6645 24.3849 36.725 24.6904 36.7247 24.9989C36.7243 25.3073 36.663 25.6127 36.5444 25.8974C36.4258 26.1822 36.2521 26.4407 36.0334 26.6582Z" fill="white"/>
</svg>
