<svg width="50" height="50" viewBox="0 0 50 50" fill="none" xmlns="http://www.w3.org/2000/svg">
<rect width="50" height="50" rx="25" fill="#00CC46"/>
<path d="M32.9081 38.9668C33.3484 39.4071 33.5958 40.0043 33.5958 40.627C33.5958 41.2496 33.3484 41.8468 32.9081 42.2871C32.4678 42.7274 31.8706 42.9748 31.2479 42.9748C30.6253 42.9748 30.0281 42.7274 29.5878 42.2871L13.9628 26.6621C13.7443 26.4444 13.5709 26.1856 13.4526 25.9008C13.3343 25.6159 13.2734 25.3104 13.2734 25.002C13.2734 24.6935 13.3343 24.3881 13.4526 24.1032C13.5709 23.8183 13.7443 23.5595 13.9628 23.3418L29.5878 7.7168C30.0281 7.2765 30.6253 7.02914 31.2479 7.02914C31.8706 7.02914 32.4678 7.2765 32.9081 7.7168C33.3484 8.1571 33.5958 8.75428 33.5958 9.37696C33.5958 9.99964 33.3484 10.5968 32.9081 11.0371L18.9452 25L32.9081 38.9668Z" fill="white"/>
</svg>
