<svg width="101" height="76" viewBox="0 0 101 76" fill="none" xmlns="http://www.w3.org/2000/svg">
<rect x="0.676758" width="100.322" height="75.9456" rx="37.9728" fill="#00CC46"/>
<path d="M60.3114 51.9377C60.7517 52.378 60.9991 52.9751 60.9991 53.5978C60.9991 54.2205 60.7517 54.8177 60.3114 55.258C59.8711 55.6983 59.2739 55.9456 58.6513 55.9456C58.0286 55.9456 57.4314 55.6983 56.9911 55.258L41.3661 39.633C41.1476 39.4152 40.9742 39.1565 40.8559 38.8716C40.7377 38.5867 40.6768 38.2813 40.6768 37.9728C40.6768 37.6643 40.7377 37.3589 40.8559 37.074C40.9742 36.7891 41.1476 36.5304 41.3661 36.3127L56.9911 20.6877C57.4314 20.2474 58.0286 20 58.6513 20C59.2739 20 59.8711 20.2474 60.3114 20.6877C60.7517 21.128 60.9991 21.7251 60.9991 22.3478C60.9991 22.9705 60.7517 23.5677 60.3114 24.008L46.3485 37.9709L60.3114 51.9377Z" fill="white"/>
</svg>
