<svg width="24" height="18" viewBox="0 0 24 18" fill="none" xmlns="http://www.w3.org/2000/svg">
<path d="M23.4375 8.90625C23.4375 9.27921 23.2893 9.6369 23.0256 9.90062C22.7619 10.1643 22.4042 10.3125 22.0312 10.3125H1.40625C1.03329 10.3125 0.675604 10.1643 0.411881 9.90062C0.148158 9.6369 0 9.27921 0 8.90625C0 8.53329 0.148158 8.1756 0.411881 7.91188C0.675604 7.64816 1.03329 7.5 1.40625 7.5H22.0312C22.4042 7.5 22.7619 7.64816 23.0256 7.91188C23.2893 8.1756 23.4375 8.53329 23.4375 8.90625ZM1.40625 2.8125H22.0312C22.4042 2.8125 22.7619 2.66434 23.0256 2.40062C23.2893 2.1369 23.4375 1.77921 23.4375 1.40625C23.4375 1.03329 23.2893 0.675604 23.0256 0.411881C22.7619 0.148158 22.4042 0 22.0312 0H1.40625C1.03329 0 0.675604 0.148158 0.411881 0.411881C0.148158 0.675604 0 1.03329 0 1.40625C0 1.77921 0.148158 2.1369 0.411881 2.40062C0.675604 2.66434 1.03329 2.8125 1.40625 2.8125ZM22.0312 15H1.40625C1.03329 15 0.675604 15.1482 0.411881 15.4119C0.148158 15.6756 0 16.0333 0 16.4062C0 16.7792 0.148158 17.1369 0.411881 17.4006C0.675604 17.6643 1.03329 17.8125 1.40625 17.8125H22.0312C22.4042 17.8125 22.7619 17.6643 23.0256 17.4006C23.2893 17.1369 23.4375 16.7792 23.4375 16.4062C23.4375 16.0333 23.2893 15.6756 23.0256 15.4119C22.7619 15.1482 22.4042 15 22.0312 15Z" fill="#351F14"/>
</svg>
